<?xml version="1.0" encoding="UTF-8" standalone="no"?><!DOCTYPE svg PUBLIC "-//W3C//DTD SVG 1.1//EN" "http://www.w3.org/Graphics/SVG/1.1/DTD/svg11.dtd"><svg width="100%" height="100%" viewBox="0 0 513 512" version="1.1" xmlns="http://www.w3.org/2000/svg" xmlns:xlink="http://www.w3.org/1999/xlink" xml:space="preserve" xmlns:serif="http://www.serif.com/" style="fill-rule:evenodd;clip-rule:evenodd;stroke-linejoin:round;stroke-miterlimit:2;"><path d="M256.042,0c-69.542,0 -78.292,0.292 -105.584,1.542c-21.232,0.431 -42.239,4.461 -62.125,11.916c-17.091,6.39 -32.568,16.462 -45.333,29.5c-13.026,12.791 -23.121,28.26 -29.583,45.334c-7.459,19.897 -11.475,40.921 -11.875,62.166c-1.209,27.292 -1.542,36 -1.542,105.542c-0,69.542 0.292,78.208 1.542,105.542c0.431,21.232 4.461,42.239 11.916,62.125c6.422,17.075 16.489,32.546 29.5,45.333c12.78,13.04 28.252,23.136 45.334,29.583c19.903,7.439 40.923,11.455 62.166,11.875c27.292,1.25 36,1.542 105.542,1.542c69.542,-0 78.208,-0.292 105.542,-1.542c21.243,-0.42 42.263,-4.436 62.166,-11.875c34.41,-13.346 61.654,-40.59 75,-75c7.416,-19.896 11.444,-40.896 11.917,-62.125c1.208,-27.291 1.542,-36 1.542,-105.541c-0,-69.542 -0.334,-78.25 -1.542,-105.542c-0.473,-21.242 -4.501,-42.256 -11.917,-62.167c-6.431,-17.08 -16.513,-32.552 -29.541,-45.333c-12.757,-13.048 -28.237,-23.121 -45.334,-29.5c-19.957,-7.446 -41.035,-11.447 -62.333,-11.833c-27.333,-1.25 -36,-1.542 -105.542,-1.542l0.084,-0Zm-23,46.125l23,-0c68.333,-0 76.416,0.25 103.416,1.5c16.234,0.185 32.316,3.159 47.542,8.792c11.116,4.106 21.17,10.657 29.417,19.166c8.492,8.262 15.04,18.311 19.166,29.417c5.633,15.226 8.607,31.308 8.792,47.542c1.25,26.958 1.5,35.083 1.5,103.416c-0,68.334 -0.25,76.417 -1.5,103.417c-0.18,16.221 -3.155,32.289 -8.792,47.5c-8.619,22.297 -26.278,39.941 -48.583,48.542c-15.216,5.676 -31.303,8.665 -47.542,8.833c-26.958,1.25 -35.083,1.5 -103.416,1.5c-68.334,0 -76.459,-0.25 -103.459,-1.5c-16.236,-0.198 -32.318,-3.186 -47.541,-8.833c-11.127,-4.089 -21.195,-10.625 -29.459,-19.125c-8.494,-8.252 -15.03,-18.305 -19.125,-29.417c-5.647,-15.224 -8.635,-31.306 -8.833,-47.542c-1.208,-27 -1.458,-35.083 -1.458,-103.458c-0,-68.375 0.25,-76.417 1.458,-103.417c0.173,-16.238 3.162,-32.324 8.833,-47.541c4.095,-11.113 10.631,-21.166 19.125,-29.417c8.27,-8.502 18.335,-15.051 29.459,-19.167c15.228,-5.629 31.307,-8.617 47.541,-8.833c23.625,-1.042 32.75,-1.375 80.459,-1.417l-0,0.042Zm159.625,42.5c-16.869,0 -30.75,13.881 -30.75,30.75c-0,16.869 13.881,30.75 30.75,30.75c16.869,-0 30.75,-13.881 30.75,-30.75l-0,-0.042c-0,-16.846 -13.863,-30.708 -30.709,-30.708c-0.014,-0 -0.027,-0 -0.041,0Zm-136.625,35.917c-72.116,-0 -131.459,59.342 -131.459,131.458c0,72.116 59.343,131.458 131.459,131.458c72.116,0 131.458,-59.342 131.458,-131.458c-0.023,-72.107 -59.351,-131.435 -131.458,-131.458Zm-0,46.125c0.041,-0 0.083,-0 0.125,-0c46.812,-0 85.333,38.52 85.333,85.333c-0,46.812 -38.521,85.333 -85.333,85.333c-46.813,0 -85.334,-38.521 -85.334,-85.333c0.091,-46.702 38.506,-85.098 85.209,-85.167l-0,-0.166Z" style="fill:#fff;fill-rule:nonzero;"/></svg>