<?xml version="1.0" encoding="UTF-8" standalone="no"?><!DOCTYPE svg PUBLIC "-//W3C//DTD SVG 1.1//EN" "http://www.w3.org/Graphics/SVG/1.1/DTD/svg11.dtd"><svg width="100%" height="100%" viewBox="0 0 5718 4215" version="1.1" xmlns="http://www.w3.org/2000/svg" xmlns:xlink="http://www.w3.org/1999/xlink" xml:space="preserve" xmlns:serif="http://www.serif.com/" style="fill-rule:evenodd;clip-rule:evenodd;stroke-linejoin:round;stroke-miterlimit:2;"><path d="M0,1355.93l165.058,0l0,-1220.92l3.759,0l210.462,1220.92l187.909,0l191.666,-1220.92l3.759,0l-0,1220.92l176.329,0l-0,-1355.93l-290.954,0l-172.876,1032.86l-3.758,0l-172.879,-1032.86l-298.475,0l-0,1355.93Z" style="fill:#fff;fill-rule:nonzero;"/><path d="M1070.66,1132.61c0,174.605 116.305,234.596 251.588,234.596c157.783,0 249.7,-93.737 249.7,-253.383l-0,-477.254c-0,-174.604 -116.304,-234.6 -251.583,-234.6c-157.784,-0 -249.705,93.741 -249.705,253.391l0,477.25Zm176.334,-488.525c-0,-75.158 18.812,-118.379 75.254,-118.379c54.558,0 73.371,43.221 73.371,118.379l-0,481.013c-0,75.158 -18.813,118.371 -73.371,118.371c-56.442,-0 -75.254,-43.213 -75.254,-118.371l-0,-481.013Z" style="fill:#fff;fill-rule:nonzero;"/><path d="M1698.03,1355.93l176.329,0l0,-719.408c0,-73.254 33.867,-99.55 77.138,-99.55c54.562,0 67.733,35.688 67.733,84.525l0,734.433l176.329,0l0,-768.246c0,-138.841 -76.908,-185.72 -165.075,-185.72c-35.712,-0 -67.7,7.5 -95.92,24.379c-28.221,15.066 -50.796,37.608 -67.705,65.783l-3.754,0l0,-78.892l-165.075,0l0,942.696Z" style="fill:#fff;fill-rule:nonzero;"/><path d="M2299.1,1132.61c0,174.605 116.304,234.596 249.717,234.596c108.983,0 227.15,-43.121 227.15,-185.741l-0,-142.8l-165.059,-0l0,112.737c0,58.246 -20.695,92.067 -67.737,92.067c-47.042,-0 -67.738,-31.942 -67.738,-88.309l0,-518.591c0,-73.279 26.342,-110.863 67.738,-110.863c41.396,0 67.737,30.067 67.737,101.467l0,103.342l165.059,-0l-0,-140.921c-0,-108.884 -69.4,-187.625 -229.034,-187.625c-155.912,-0 -247.833,93.741 -247.833,253.391l0,477.25Z" style="fill:#fff;fill-rule:nonzero;"/><path d="M3377.04,413.238l-176.329,-0l-0,719.408c-0,73.254 -33.867,99.554 -77.142,99.554c-54.558,-0 -67.729,-35.692 -67.729,-84.529l-0,-734.434l-176.329,0l-0,768.246c-0,138.846 76.908,185.721 165.075,185.721c35.712,0 67.695,-7.5 95.916,-24.375c28.221,-15.071 50.8,-37.608 67.709,-65.783l3.754,-0l-0,78.887l165.075,0l-0,-942.696Z" style="fill:#fff;fill-rule:nonzero;"/><rect x="3510.64" y="0" width="176.329" height="1355.93" style="fill:#fff;"/><path d="M3854.38,1230.32c0,84.367 50.65,125.612 191.358,125.612c48.838,0 93.917,-3.75 114.579,-5.62l0.001,-123.751c-11.271,3.759 -24.417,5.638 -45.08,5.638c-52.595,0 -84.525,-13.154 -84.525,-84.554l0,-610.671l108.942,0l0,-123.737l-108.942,-0l0,-240.43l-176.333,61.988l0,178.442l-88.279,-0l-0,123.737l88.279,0l0,693.346Z" style="fill:#fff;fill-rule:nonzero;"/><path d="M4701.29,413.238l-176.329,-0l-0.001,719.408c0.001,73.254 -33.866,99.554 -77.137,99.554c-54.563,-0 -67.733,-35.692 -67.733,-84.529l-0,-734.434l-176.329,0l-0.001,768.246c0.001,138.846 76.913,185.721 165.075,185.721c35.713,0 67.696,-7.5 95.917,-24.375c28.221,-15.071 50.8,-37.608 67.708,-65.783l3.755,-0l-0,78.887l165.075,0l-0,-942.696Z" style="fill:#fff;fill-rule:nonzero;"/><path d="M4829.25,1355.93l176.329,0l0,-655.541c0,-97.675 61.988,-122.096 150.271,-122.096l0,-176.329c-86.404,-0 -116.458,20.633 -157.775,108.8l-3.75,-0l0,-97.53l-165.075,0l0,942.696Z" style="fill:#fff;fill-rule:nonzero;"/><path d="M5204.92,1132.55c-0,174.671 116.304,234.65 249.687,234.65c195.342,0 262.867,-91.846 262.867,-187.654l-0,-133.462l-165.059,-0l0.001,86.466c-0.001,75.192 -18.813,122.184 -84.642,122.184c-56.429,-0 -86.525,-24.438 -86.525,-112.784l-0,-201.133l336.225,-0l-0,-304.2c-0,-174.671 -116.292,-234.654 -257.225,-234.654c-163.413,-0 -255.329,93.721 -255.329,253.454l-0,477.133Zm176.329,-514.733c-0,-67.671 20.691,-103.388 86.525,-103.388c60.187,0 84.642,33.838 84.642,118.43l-0,184.22l-171.167,0l-0,-199.262Z" style="fill:#fff;fill-rule:nonzero;"/><path d="M0,2779.55l176.329,-0l0,-942.696l-176.329,-0l0,942.696Zm0,-1168.33l176.329,0.001l0,-187.601l-176.329,0.001l0,187.6Z" style="fill:#fff;fill-rule:nonzero;"/><path d="M745.471,2140.97l-0,-144.679c-0,-112.596 -69.396,-170.713 -200.825,-170.713c-157.829,0 -244.108,56.242 -244.108,234.6c-0,129.646 1.875,144.679 142.55,264.929l39.445,33.825c101.625,86.43 107.271,101.463 107.271,202.925c0,75.159 -7.529,105.221 -65.871,105.221c-41.387,0 -65.85,-15.029 -65.85,-73.279l0,-129.646l-165.062,0l-0,133.404c-0,137.013 75.029,193.259 210.225,193.259c187.842,-0 251.617,-69.367 251.617,-253.384c-0,-137.166 -26.259,-176.625 -163.184,-296.875c-118.554,-103.341 -126.083,-108.979 -126.083,-204.808c-0,-65.762 13.175,-86.433 60.225,-86.433c47.046,-0 62.104,28.187 62.104,101.466l-0,90.188l157.546,-0Z" style="fill:#fff;fill-rule:nonzero;"/><path d="M187.6,3004.77l75.204,-0c159.804,-0 180.488,67.629 180.488,268.662l-0,465.938c-0,232.967 -26.321,306.237 -165.45,306.237l-90.242,0l0,-1040.84Zm-187.6,1198.39l272.204,0c296.779,0 358.688,-108.783 358.688,-456.275l-0,-403.937c-0,-394.442 -24.388,-495.725 -328.609,-495.725l-302.283,-0l0,1355.94Z" style="fill:#fff;fill-rule:nonzero;"/><path d="M751.342,3979.78c-0,174.671 116.3,234.654 249.683,234.654c195.346,0 262.871,-91.85 262.871,-187.658l-0,-133.463l-165.058,0l-0,86.467c-0,75.192 -18.813,122.188 -84.646,122.188c-56.425,-0 -86.521,-24.438 -86.521,-112.788l-0,-201.133l336.225,-0l-0,-304.2c-0,-174.671 -116.292,-234.655 -257.225,-234.655c-163.413,0.001 -255.329,93.726 -255.329,253.455l-0,477.133Zm176.329,-514.729c-0,-67.675 20.692,-103.392 86.521,-103.392c60.191,0 84.646,33.838 84.646,118.429l-0,184.221l-171.167,0l-0,-199.258Z" style="fill:#fff;fill-rule:nonzero;"/><path d="M1380.59,3538.38l176.329,0l-0,-86.487c-0,-58.288 26.341,-78.967 75.254,-78.967c60.204,0 73.371,35.721 73.371,90.246l-0,152.296c-203.042,-0 -233.054,15 -274.321,58.121c-48.775,50.616 -63.779,93.808 -63.779,283.65c-0,225.316 67.529,257.191 172.575,257.191c45.137,0 94.046,-18.75 126.025,-50.621c18.808,-18.758 30.095,-37.504 50.758,-58.12l-0,97.47l165.075,0l-0,-724.945c-0,-165.28 -88.167,-229.025 -249.704,-229.025c-167.171,-0 -251.584,65.62 -251.584,204.583l0,84.608Zm324.955,200.825l-0,242.471c-0,63.904 -31.979,109.017 -92.184,109.017c-56.42,-0 -69.587,-18.796 -69.587,-157.888c-0,-148.492 22.571,-193.6 105.337,-193.6l56.434,0Z" style="fill:#fff;fill-rule:nonzero;"/><path d="M2184.29,3500.7c-0,-101.463 28.22,-127.771 67.729,-127.771c48.912,0 80.896,37.579 80.896,154.075l-0,475.375c-0,69.521 -35.746,99.588 -71.492,99.588c-47.033,-0 -77.133,-26.309 -77.133,-135.288l-0,-465.979Zm-176.33,496.042c0,138.962 61.905,217.691 165.075,217.691c31.95,0 63.934,-7.5 92.15,-20.621c30.105,-13.191 56.442,-33.854 75.234,-58.27l3.75,-0l-0,67.62l165.075,0l-0,-1355.94l-176.329,-0l-0,480.708l-3.763,0c-15.05,-26.246 -39.508,-46.866 -67.729,-59.991c-28.217,-13.125 -60.2,-18.75 -88.388,-18.75c-103.17,-0 -165.075,78.741 -165.075,217.687l0,529.863Z" style="fill:#fff;fill-rule:nonzero;"/></svg>