<?xml version="1.0" encoding="UTF-8" standalone="no"?><!DOCTYPE svg PUBLIC "-//W3C//DTD SVG 1.1//EN" "http://www.w3.org/Graphics/SVG/1.1/DTD/svg11.dtd"><svg width="100%" height="100%" viewBox="0 0 1373 1012" version="1.1" xmlns="http://www.w3.org/2000/svg" xmlns:xlink="http://www.w3.org/1999/xlink" xml:space="preserve" xmlns:serif="http://www.serif.com/" style="fill-rule:evenodd;clip-rule:evenodd;stroke-linejoin:round;stroke-miterlimit:2;"><g><g><path d="M-0,325.424l39.614,0l0,-293.022l0.902,-0l50.511,293.022l45.098,0l46,-293.022l0.902,-0l-0,293.022l42.319,0l-0,-325.424l-69.829,0l-41.49,247.886l-0.902,0l-41.491,-247.886l-71.634,0l-0,325.424Z" style="fill:#040000;fill-rule:nonzero;"/><path d="M256.958,271.826c0,41.905 27.913,56.303 60.381,56.303c37.868,0 59.928,-22.497 59.928,-60.812l-0,-114.541c-0,-41.905 -27.913,-56.304 -60.38,-56.304c-37.868,0 -59.929,22.498 -59.929,60.814l0,114.54Zm42.32,-117.246c-0,-18.038 4.515,-28.411 18.061,-28.411c13.094,-0 17.609,10.373 17.609,28.411l-0,115.443c-0,18.038 -4.515,28.409 -17.609,28.409c-13.546,0 -18.061,-10.371 -18.061,-28.409l-0,-115.443Z" style="fill:#040000;fill-rule:nonzero;"/><path d="M407.527,325.424l42.319,0l0,-172.658c0,-17.581 8.128,-23.892 18.513,-23.892c13.095,-0 16.256,8.565 16.256,20.286l-0,176.264l42.319,0l-0,-184.379c-0,-33.322 -18.458,-44.573 -39.618,-44.573c-8.571,0 -16.248,1.8 -23.021,5.851c-6.773,3.616 -12.191,9.026 -16.249,15.788l-0.901,-0l0,-18.934l-39.618,-0l0,226.247Z" style="fill:#040000;fill-rule:nonzero;"/><path d="M551.784,271.826c0,41.905 27.913,56.303 59.932,56.303c26.156,0 54.516,-10.349 54.516,-44.578l0,-34.272l-39.614,0l0,27.057c0,13.979 -4.967,22.096 -16.257,22.096c-11.29,0 -16.257,-7.666 -16.257,-21.194l-0,-124.462c-0,-17.587 6.322,-26.607 16.257,-26.607c9.935,-0 16.257,7.216 16.257,24.352l0,24.802l39.614,0l0,-33.821c0,-26.132 -16.656,-45.03 -54.968,-45.03c-37.419,0 -59.48,22.498 -59.48,60.814l0,114.54Z" style="fill:#040000;fill-rule:nonzero;"/><path d="M810.49,99.177l-42.319,-0l-0,172.658c-0,17.581 -8.128,23.893 -18.514,23.893c-13.094,-0 -16.255,-8.566 -16.255,-20.287l0,-176.264l-42.319,-0l0,184.379c0,33.323 18.458,44.573 39.618,44.573c8.571,0 16.247,-1.8 23.02,-5.85c6.773,-3.617 12.192,-9.026 16.25,-15.788l0.901,-0l-0,18.933l39.618,0l-0,-226.247Z" style="fill:#040000;fill-rule:nonzero;"/><rect x="842.553" y="0" width="42.319" height="325.424" style="fill:#040000;fill-rule:nonzero;"/><path d="M925.05,295.277c0,20.248 12.156,30.147 45.926,30.147c11.721,0 22.54,-0.9 27.499,-1.349l0,-29.7c-2.705,0.902 -5.86,1.353 -10.819,1.353c-12.623,-0 -20.286,-3.157 -20.286,-20.293l-0,-146.561l26.146,-0l0,-29.697l-26.146,-0l-0,-57.703l-42.32,14.877l0,42.826l-21.187,-0l-0,29.697l21.187,-0l0,166.403Z" style="fill:#040000;fill-rule:nonzero;"/><path d="M1128.31,99.177l-42.319,-0l-0,172.658c-0,17.581 -8.128,23.893 -18.513,23.893c-13.095,-0 -16.256,-8.566 -16.256,-20.287l0,-176.264l-42.319,-0l0,184.379c0,33.323 18.459,44.573 39.618,44.573c8.571,0 16.247,-1.8 23.02,-5.85c6.773,-3.617 12.192,-9.026 16.25,-15.788l0.901,-0l-0,18.933l39.618,0l-0,-226.247Z" style="fill:#040000;fill-rule:nonzero;"/><path d="M1159.02,325.424l42.319,0l0,-157.33c0,-23.442 14.877,-29.303 36.065,-29.303l-0,-42.319c-20.737,0 -27.95,4.952 -37.866,26.112l-0.9,-0l0,-23.407l-39.618,-0l-0,226.247Z" style="fill:#040000;fill-rule:nonzero;"/><path d="M1249.18,271.813c-0,41.921 27.913,56.316 59.925,56.316c46.882,0 63.088,-22.043 63.088,-45.037l0,-32.031l-39.614,-0l-0,20.752c-0,18.046 -4.515,29.324 -20.314,29.324c-13.543,0 -20.766,-5.865 -20.766,-27.068l0,-48.272l80.694,-0l0,-73.008c0,-41.921 -27.91,-56.317 -61.734,-56.317c-39.219,0 -61.279,22.493 -61.279,60.829l-0,114.512Zm42.319,-123.536c0,-16.241 4.966,-24.813 20.766,-24.813c14.445,0 20.314,8.121 20.314,28.423l-0,44.213l-41.08,-0l0,-47.823Z" style="fill:#040000;fill-rule:nonzero;"/><path d="M-0,667.091l42.319,0l0,-226.247l-42.319,-0l-0,226.247Zm-0,-280.4l42.319,-0l0,-45.024l-42.319,-0l-0,45.024Z" style="fill:#040000;fill-rule:nonzero;"/><path d="M178.913,513.833l-0,-34.723c-0,-27.023 -16.655,-40.971 -48.198,-40.971c-37.879,-0 -58.586,13.498 -58.586,56.304c-0,31.115 0.45,34.723 34.212,63.583l9.467,8.118c24.39,20.743 25.745,24.351 25.745,48.702c-0,18.038 -1.807,25.253 -15.809,25.253c-9.933,0 -15.804,-3.607 -15.804,-17.587l-0,-31.115l-39.615,-0l0,32.017c0,32.883 18.007,46.382 50.454,46.382c45.082,-0 60.388,-16.648 60.388,-60.812c-0,-32.92 -6.302,-42.39 -39.164,-71.25c-28.453,-24.802 -30.26,-26.155 -30.26,-49.154c0,-15.783 3.162,-20.744 14.454,-20.744c11.291,-0 14.905,6.765 14.905,24.352l-0,21.645l37.811,0Z" style="fill:#040000;fill-rule:nonzero;"/><path d="M45.024,721.145l18.049,-0c38.353,-0 43.317,16.231 43.317,64.479l-0,111.825c-0,55.912 -6.317,73.497 -39.708,73.497l-21.658,0l0,-249.801Zm-45.024,287.613l65.329,-0c71.227,-0 86.085,-26.108 86.085,-109.506l-0,-96.945c-0,-94.666 -5.853,-118.974 -78.866,-118.974l-72.548,0l-0,325.425Z" style="fill:#040000;fill-rule:nonzero;"/><path d="M180.322,955.146c-0,41.921 27.912,56.317 59.924,56.317c46.883,-0 63.089,-22.044 63.089,-45.038l-0,-32.031l-39.614,-0l-0,20.752c-0,18.046 -4.515,29.325 -20.315,29.325c-13.542,-0 -20.765,-5.865 -20.765,-27.069l-0,-48.272l80.694,-0l-0,-73.008c-0,-41.921 -27.91,-56.317 -61.734,-56.317c-39.219,0 -61.279,22.494 -61.279,60.829l-0,114.512Zm42.319,-123.535c-0,-16.242 4.966,-24.814 20.765,-24.814c14.446,0 20.315,8.121 20.315,28.423l-0,44.213l-41.08,0l-0,-47.822Z" style="fill:#040000;fill-rule:nonzero;"/><path d="M331.341,849.211l42.319,0l0,-20.757c0,-13.989 6.322,-18.952 18.061,-18.952c14.449,0 17.609,8.573 17.609,21.659l0,36.551c-48.73,0 -55.933,3.6 -65.837,13.949c-11.706,12.148 -15.307,22.514 -15.307,68.076c-0,54.076 16.207,61.726 41.418,61.726c10.833,-0 22.571,-4.5 30.246,-12.149c4.514,-4.502 7.223,-9.001 12.182,-13.949l-0,23.393l39.618,-0l-0,-173.987c-0,-39.667 -21.16,-54.966 -59.929,-54.966c-40.121,0 -60.38,15.749 -60.38,49.1l0,20.306Zm77.989,48.198l0,58.193c0,15.337 -7.675,26.164 -22.124,26.164c-13.541,-0 -16.701,-4.511 -16.701,-37.893c-0,-35.638 5.417,-46.464 25.281,-46.464l13.544,0Z" style="fill:#040000;fill-rule:nonzero;"/><path d="M524.229,840.167c0,-24.351 6.773,-30.665 16.255,-30.665c11.739,0 19.415,9.019 19.415,36.978l-0,114.09c-0,16.685 -8.579,23.901 -17.158,23.901c-11.288,-0 -18.512,-6.314 -18.512,-32.469l0,-111.835Zm-42.319,119.05c-0,33.351 14.857,52.246 39.618,52.246c7.668,-0 15.344,-1.8 22.116,-4.949c7.225,-3.166 13.546,-8.125 18.056,-13.985l0.9,-0l0,16.229l39.618,-0l0,-325.425l-42.319,0l-0,115.37l-0.903,0c-3.612,-6.299 -9.482,-11.248 -16.255,-14.398c-6.772,-3.15 -14.448,-4.5 -21.213,-4.5c-24.761,0 -39.618,18.898 -39.618,52.245l-0,127.167Z" style="fill:#040000;fill-rule:nonzero;"/></g></g></svg>