<?xml version="1.0" encoding="UTF-8" standalone="no"?><!DOCTYPE svg PUBLIC "-//W3C//DTD SVG 1.1//EN" "http://www.w3.org/Graphics/SVG/1.1/DTD/svg11.dtd"><svg width="100%" height="100%" viewBox="0 0 1388884 1128217" version="1.1" xmlns="http://www.w3.org/2000/svg" xmlns:xlink="http://www.w3.org/1999/xlink" xml:space="preserve" xmlns:serif="http://www.serif.com/" style="fill-rule:evenodd;clip-rule:evenodd;stroke-linejoin:round;stroke-miterlimit:2;"><path d="M1.38886e+06,133396c-51058.3,22833.3 -106067,38008.3 -163504,44770.8c58845.8,-35241.7 103850,-91087.5 125333,-157579c-55000,32529.2 -116129,56387.5 -180900,69150c-52079.2,-55337.5 -126050,-89737.5 -207996,-89737.5c-157342,0 -284733,127462 -284733,284708c0,22191.7 2462.5,43904.2 7283.33,64841.7c-236750,-12000 -446642,-125338 -587146,-297779c-25204.2,43479.2 -38541.7,92916.7 -38541.7,143196l0,33.333c0,98733.3 50129.2,186058 126621,236983c-46675,-1387.5 -90579.2,-14404.2 -129129,-35495.8l-0,3558.33c-0,138075 98141.7,253288 228550,279329c-23891.7,6487.5 -49112.5,10070.8 -75095.8,10070.8c-18404.2,0 -36137.5,-1895.83 -53770.8,-5100c36425,113079 141562,195512 266071,197917c-97625,76483.3 -220242,122025 -353912,122025c-23070.8,0 -45545.8,-1412.5 -67991.7,-4100c126358,81075 276046,128029 436850,128029c523896,-0 810629,-434158 810629,-810596c-0,-12508.3 -279.167,-24629.2 -795.834,-36883.3c55641.7,-39804.2 103883,-90037.5 142071,-147221l129.166,-129.167l-25,16.667l4.167,-8.334Z" style="fill:#fff;"/></svg>