<?xml version="1.0" encoding="UTF-8" standalone="no"?><!DOCTYPE svg PUBLIC "-//W3C//DTD SVG 1.1//EN" "http://www.w3.org/Graphics/SVG/1.1/DTD/svg11.dtd"><svg width="100%" height="100%" viewBox="0 0 6207 1451" version="1.1" xmlns="http://www.w3.org/2000/svg" xmlns:xlink="http://www.w3.org/1999/xlink" xml:space="preserve" xmlns:serif="http://www.serif.com/" style="fill-rule:evenodd;clip-rule:evenodd;stroke-linejoin:round;stroke-miterlimit:2;"><path d="M178.042,1450.23c-37.417,-46.891 -68.992,-99.441 -94.638,-157.754c-55.587,-126.346 -83.404,-269.712 -83.404,-430.071l0,-23.841c0,-161.884 29.138,-305.813 87.371,-431.742c58.267,-125.975 141.837,-225.275 250.787,-297.883c108.938,-72.646 239.046,-108.942 390.359,-108.942c106.641,0 204.246,16.633 292.762,49.946c88.509,33.275 161.888,75.637 220.121,127.079l0,356.317l-178.146,-0l-23.846,-261.013c-24.187,-18.904 -52.004,-34.775 -83.395,-47.658c-31.396,-12.838 -66.205,-22.688 -104.388,-29.479c-38.221,-6.817 -79.637,-10.234 -124.262,-10.234c-108.18,0 -199.717,27.809 -274.592,83.405c-74.9,55.616 -131.638,132.195 -170.208,229.791c-38.592,97.596 -57.884,210.304 -57.884,338.15l0,26.104c0,138.43 20.613,256.634 61.854,354.613c41.217,97.95 101.363,172.646 180.405,224.087c4.804,3.134 9.683,6.167 14.62,9.125l-303.516,0Zm1058.83,0l-201.642,0l1.913,-1.187l24.962,-230.354l174.767,-0l-0,231.541Z" style="fill-rule:nonzero;"/><path d="M5235.69,1450.23c-7.838,-32.966 -11.771,-68.887 -11.771,-107.837c-0,-77.933 21.375,-145.808 64.112,-203.688c42.746,-57.883 104.596,-102.895 185.563,-135.012c80.921,-32.163 177.758,-48.246 290.462,-48.246l219,0l0,-120.292c0,-74.137 -22.479,-131.612 -67.487,-172.47c-45.042,-40.863 -108.388,-61.263 -190.079,-61.263c-51.442,0 -96.067,6.229 -133.9,18.729c-37.834,12.463 -72.23,29.688 -103.28,51.617l-23.808,171.358l-172.467,0l0,-281.421c55.209,-44.658 119.488,-78.487 192.9,-101.562c73.371,-23.079 154.688,-34.6 243.963,-34.6c149.012,-0 265.888,35.537 350.612,106.65c84.755,71.108 127.117,172.854 127.117,305.262l0,591.188c0,7.275 0.033,14.45 0.1,21.587l-340.304,0c53.5,-33.7 92.375,-73.412 116.633,-119.183l0,-222.417l-226.933,0c-102.892,0 -180.021,24.609 -231.471,73.755c-51.446,49.187 -77.167,104.037 -77.167,164.533c0,42.296 10.3,76.712 30.946,103.312l-242.741,0Z" style="fill-rule:nonzero;"/><path d="M4594.61,1450.23l0,-826.112l-184.966,-31.779l-0,-144.1l384.687,-0l19.279,156.566l2.263,21.575c34.812,-62.791 77.725,-111.97 128.792,-147.508c51.054,-35.579 109.499,-53.329 175.316,-53.329c23.467,-0 47.484,2.054 72.05,6.229c24.579,4.146 42.188,8.113 52.771,11.904l-29.512,207.659l-155.455,-9.084c-58.996,-3.758 -108.558,9.642 -148.654,40.308c-40.062,30.625 -71.116,71.667 -93.041,123.109l-0,644.562l-223.53,0Z" style="fill-rule:nonzero;"/><path d="M3843.28,1450.23c-4.175,-27.779 -6.233,-58.058 -6.233,-90.812l-0,-745.534l-194.046,0l-0,-165.645l194.046,-0l-0,-296.171l223.537,-0l0,296.171l266.65,-0l0,165.645l-266.65,0l0,745.534c0,36.062 4.388,66.3 13.125,90.812l-230.429,0Z" style="fill-rule:nonzero;"/><path d="M2615.28,1450.23l0,-826.112l-184.958,-31.779l-0,-144.1l384.679,-0l15.871,182.67c40.866,-65.058 92.1,-115.566 153.75,-151.487c61.675,-35.921 131.846,-53.879 210.512,-53.879c132.367,-0 234.875,38.741 307.517,116.292c72.608,77.545 108.917,197.254 108.917,359.141l-0,549.254l-223.538,0l0,-544.704c0,-108.179 -21.367,-184.958 -64.112,-230.35c-42.738,-45.387 -107.975,-68.083 -195.755,-68.083c-64.287,-0 -121.195,15.496 -170.766,46.504c-49.563,31.017 -89.067,73.371 -118.588,127.117l0,669.516l-223.529,0Z" style="fill-rule:nonzero;"/><path d="M1463.11,1450.23c-9.884,-16.5 -19.071,-33.7 -27.567,-51.662c-44.658,-94.188 -66.971,-201.804 -66.971,-322.825l0,-24.963c0,-121.062 22.313,-228.679 66.971,-322.833c44.625,-94.188 107.971,-168.154 190.046,-221.858c82.075,-53.704 179.121,-80.546 291.058,-80.546c113.467,-0 211.242,26.842 293.358,80.546c82.067,53.704 145.421,127.458 190.038,221.262c44.658,93.813 66.971,201.609 66.971,323.429l-0,24.963c-0,121.787 -22.313,229.758 -66.971,323.946c-8.313,17.575 -17.258,34.383 -26.867,50.541l-256.842,0c38.88,-37.108 68.95,-84.933 90.255,-143.583c24.575,-67.7 36.862,-144.696 36.862,-230.904l0,-24.963c0,-86.25 -12.287,-163.246 -36.862,-230.946c-24.613,-67.695 -61.084,-121.016 -109.5,-159.97c-48.421,-38.98 -108.567,-58.442 -180.442,-58.442c-71.113,-0 -130.875,19.462 -179.296,58.442c-48.417,38.954 -84.712,92.275 -108.904,159.97c-24.225,67.7 -36.337,144.696 -36.337,230.946l-0,24.963c-0,86.208 12.112,163.204 36.337,230.904c20.95,58.65 51.133,106.475 90.529,143.583l-255.866,0Z" style="fill-rule:nonzero;"/></svg>