<?xml version="1.0" encoding="UTF-8" standalone="no"?><!DOCTYPE svg PUBLIC "-//W3C//DTD SVG 1.1//EN" "http://www.w3.org/Graphics/SVG/1.1/DTD/svg11.dtd"><svg width="100%" height="100%" viewBox="0 0 2122 2478" version="1.1" xmlns="http://www.w3.org/2000/svg" xmlns:xlink="http://www.w3.org/1999/xlink" xml:space="preserve" xmlns:serif="http://www.serif.com/" style="fill-rule:evenodd;clip-rule:evenodd;stroke-linejoin:round;stroke-miterlimit:2;"><path d="M304.213,2477.95c-63.934,-80.121 -117.884,-169.913 -161.705,-269.546c-94.979,-215.883 -142.508,-460.846 -142.508,-734.846l0,-40.737c0,-276.6 49.788,-522.525 149.288,-737.696c99.558,-215.25 242.349,-384.917 428.508,-508.979c186.137,-124.129 408.45,-186.146 666.987,-186.146c182.217,-0 348.988,28.421 500.234,85.342c151.229,56.854 276.608,129.237 376.108,217.133l0,608.821l-304.387,-0l-40.746,-445.979c-41.329,-32.3 -88.859,-59.417 -142.496,-81.434c-53.642,-21.933 -113.117,-38.762 -178.363,-50.366c-65.304,-11.65 -136.07,-17.488 -212.32,-17.488c-184.842,0 -341.246,47.517 -469.184,142.508c-127.979,95.034 -224.921,225.88 -290.825,392.638c-65.941,166.758 -98.904,359.337 -98.904,577.783l0,44.6c0,236.529 35.221,438.5 105.688,605.913c70.425,167.362 173.191,294.991 308.25,382.887c8.208,5.354 16.545,10.538 24.979,15.592l-518.605,-0Zm1809.17,-0l-344.537,-0l3.271,-2.029l42.65,-393.596l298.617,-0l-0,395.625Z" style="fill-rule:nonzero;"/></svg>