<?xml version="1.0" encoding="UTF-8" standalone="no"?><!DOCTYPE svg PUBLIC "-//W3C//DTD SVG 1.1//EN" "http://www.w3.org/Graphics/SVG/1.1/DTD/svg11.dtd"><svg width="100%" height="100%" viewBox="0 0 510 595" version="1.1" xmlns="http://www.w3.org/2000/svg" xmlns:xlink="http://www.w3.org/1999/xlink" xml:space="preserve" xmlns:serif="http://www.serif.com/" style="fill-rule:evenodd;clip-rule:evenodd;stroke-linejoin:round;stroke-miterlimit:2;"><path d="M73.011,594.708c-15.344,-19.229 -28.292,-40.779 -38.809,-64.691c-22.795,-51.812 -34.202,-110.603 -34.202,-176.363l0,-9.777c0,-66.384 11.949,-125.406 35.829,-177.047c23.894,-51.66 58.164,-92.38 102.842,-122.155c44.673,-29.791 98.028,-44.675 160.077,-44.675c43.732,0 83.757,6.821 120.056,20.482c36.295,13.645 66.386,31.017 90.266,52.112l0,146.117l-73.053,0l-9.779,-107.035c-9.919,-7.752 -21.326,-14.26 -34.199,-19.544c-12.874,-5.264 -27.148,-9.303 -42.807,-12.088c-15.673,-2.796 -32.657,-4.197 -50.957,-4.197c-44.362,0 -81.899,11.404 -112.604,34.202c-30.715,22.808 -53.981,54.211 -69.798,94.233c-15.826,40.022 -23.737,86.241 -23.737,138.668l-0,10.704c-0,56.767 8.453,105.24 25.365,145.419c16.902,40.167 41.566,70.798 73.98,91.893c1.97,1.285 3.971,2.529 5.995,3.742l-124.465,0Zm434.202,0l-82.689,0l0.785,-0.487l10.236,-94.463l71.668,0l0,94.95Z" style="fill:#fff;fill-rule:nonzero;"/></svg>