<?xml version="1.0" encoding="UTF-8" standalone="no"?><!DOCTYPE svg PUBLIC "-//W3C//DTD SVG 1.1//EN" "http://www.w3.org/Graphics/SVG/1.1/DTD/svg11.dtd"><svg width="100%" height="100%" viewBox="0 0 1267 533" version="1.1" xmlns="http://www.w3.org/2000/svg" xmlns:xlink="http://www.w3.org/1999/xlink" xml:space="preserve" xmlns:serif="http://www.serif.com/" style="fill-rule:evenodd;clip-rule:evenodd;stroke-linejoin:round;stroke-miterlimit:2;"><rect x="0" y="0" width="1266.26" height="532.74" style="fill:#ff4b4c;"/><path d="M282.946,291.892c-4.479,-5.613 -8.259,-11.904 -11.329,-18.884c-6.654,-15.125 -9.984,-32.287 -9.984,-51.483l0,-2.854c0,-19.379 3.488,-36.608 10.459,-51.683c6.975,-15.08 16.979,-26.967 30.021,-35.659c13.041,-8.696 28.616,-13.041 46.729,-13.041c12.766,-0 24.45,1.991 35.046,5.979c10.595,3.983 19.379,9.054 26.35,15.212l-0,42.654l-21.325,0l-2.855,-31.245c-2.895,-2.263 -6.225,-4.163 -9.983,-5.705c-3.758,-1.537 -7.925,-2.716 -12.496,-3.529c-4.575,-0.816 -9.533,-1.225 -14.875,-1.225c-12.95,0 -23.908,3.329 -32.871,9.984c-8.966,6.658 -15.758,15.825 -20.375,27.508c-4.62,11.683 -6.929,25.175 -6.929,40.479l0,3.125c0,16.571 2.467,30.721 7.404,42.45c4.934,11.725 12.134,20.667 21.596,26.825c0.575,0.375 1.159,0.738 1.75,1.092l-36.333,-0Zm126.75,-0l-24.138,-0l0.229,-0.142l2.988,-27.575l20.921,0l-0,27.717Z" style="fill-rule:nonzero;"/><path d="M888.388,291.892c-0.938,-3.946 -1.409,-8.246 -1.409,-12.909c0,-9.329 2.559,-17.454 7.675,-24.383c5.117,-6.929 12.521,-12.317 22.213,-16.162c9.687,-3.85 21.279,-5.775 34.771,-5.775l26.216,-0l0,-14.4c0,-8.875 -2.691,-15.755 -8.079,-20.646c-5.392,-4.892 -12.975,-7.334 -22.754,-7.334c-6.158,0 -11.5,0.746 -16.029,2.242c-4.529,1.492 -8.646,3.554 -12.363,6.179l-2.85,20.513l-20.646,-0l0,-33.688c6.609,-5.346 14.304,-9.396 23.092,-12.158c8.783,-2.763 18.517,-4.142 29.204,-4.142c17.838,0 31.829,4.254 41.971,12.767c10.146,8.512 15.217,20.692 15.217,36.542l-0,70.77c-0,0.871 0.004,1.73 0.012,2.584l-40.737,-0c6.404,-4.034 11.058,-8.788 13.962,-14.267l0,-26.625l-27.166,0c-12.317,0 -21.55,2.946 -27.709,8.829c-6.158,5.888 -9.237,12.454 -9.237,19.696c-0,5.063 1.233,9.183 3.704,12.367l-29.058,-0Z" style="fill-rule:nonzero;"/><path d="M811.642,291.892l-0,-98.892l-22.142,-3.804l0,-17.25l46.05,-0l2.308,18.742l0.271,2.583c4.167,-7.517 9.304,-13.404 15.417,-17.658c6.112,-4.259 13.108,-6.384 20.987,-6.384c2.809,0 5.684,0.246 8.625,0.746c2.942,0.496 5.05,0.971 6.317,1.425l-3.533,24.858l-18.609,-1.087c-7.062,-0.45 -12.995,1.154 -17.795,4.825c-4.796,3.666 -8.513,8.579 -11.138,14.737l0,77.159l-26.758,-0Z" style="fill-rule:nonzero;"/><path d="M721.704,291.892c-0.5,-3.325 -0.746,-6.95 -0.746,-10.871l0,-89.246l-23.229,0l0,-19.829l23.229,-0l0,-35.454l26.759,-0l-0,35.454l31.92,-0l0,19.829l-31.92,0l-0,89.246c-0,4.317 0.525,7.937 1.571,10.871l-27.584,-0Z" style="fill-rule:nonzero;"/><path d="M574.704,291.892l0,-98.892l-22.141,-3.804l-0,-17.25l46.049,-0l1.9,21.867c4.892,-7.788 11.025,-13.834 18.405,-18.134c7.383,-4.3 15.783,-6.45 25.2,-6.45c15.845,0 28.116,4.638 36.812,13.921c8.692,9.283 13.038,23.613 13.038,42.992l-0,65.75l-26.759,-0l0,-65.205c0,-12.95 -2.558,-22.141 -7.675,-27.575c-5.116,-5.433 -12.925,-8.15 -23.433,-8.15c-7.696,0 -14.508,1.855 -20.442,5.567c-5.933,3.713 -10.662,8.783 -14.196,15.217l0,80.146l-26.758,-0Z" style="fill-rule:nonzero;"/><path d="M436.779,291.892c-1.183,-1.975 -2.283,-4.034 -3.3,-6.184c-5.346,-11.275 -8.017,-24.158 -8.017,-38.645l0,-2.988c0,-14.492 2.671,-27.375 8.017,-38.646c5.342,-11.275 12.925,-20.129 22.75,-26.558c9.825,-6.429 21.442,-9.642 34.842,-9.642c13.583,0 25.287,3.213 35.117,9.642c9.824,6.429 17.408,15.258 22.749,26.487c5.346,11.23 8.017,24.134 8.017,38.717l0,2.988c0,14.579 -2.671,27.504 -8.017,38.779c-0.995,2.104 -2.066,4.116 -3.216,6.05l-30.746,-0c4.654,-4.442 8.254,-10.167 10.804,-17.188c2.942,-8.104 4.413,-17.321 4.413,-27.641l-0,-2.988c-0,-10.325 -1.471,-19.542 -4.413,-27.646c-2.946,-8.104 -7.312,-14.487 -13.108,-19.15c-5.796,-4.666 -12.996,-6.996 -21.6,-6.996c-8.513,0 -15.667,2.33 -21.463,6.996c-5.796,4.663 -10.141,11.046 -13.037,19.15c-2.9,8.104 -4.35,17.321 -4.35,27.646l-0,2.988c-0,10.32 1.45,19.537 4.35,27.641c2.508,7.021 6.121,12.746 10.837,17.188l-30.629,-0Z" style="fill-rule:nonzero;"/><path d="M280.533,439.354l0,-7.575l9.8,-1.683l0,-68.95l-9.8,-1.683l0,-7.634l40.217,0c6.25,0 11.583,1.092 15.992,3.275c4.408,2.184 7.77,5.242 10.096,9.167c2.325,3.929 3.487,8.517 3.487,13.767c0,5.291 -1.162,9.9 -3.488,13.829c-2.325,3.925 -5.687,6.971 -10.095,9.137c-4.409,2.163 -9.742,3.246 -15.992,3.246l-18.575,0l0,25.846l9.796,1.683l-0,7.575l-31.438,0Zm21.642,-44.362l18.575,-0c5.929,-0 10.371,-1.596 13.317,-4.779c2.941,-3.188 4.416,-7.205 4.416,-12.055c0,-4.85 -1.475,-8.895 -4.416,-12.141c-2.946,-3.246 -7.388,-4.871 -13.317,-4.871l-18.575,-0l0,33.846Z" style="fill:#fff;fill-rule:nonzero;"/><path d="M386.696,440.617c-7.054,-0 -12.567,-2.263 -16.534,-6.792c-3.966,-4.529 -5.95,-11.583 -5.95,-21.162l0,-29.034l-7.454,-1.683l0,-7.633l19.296,-0l0,38.47c0,6.934 1.021,11.704 3.067,14.309c2.041,2.604 5.229,3.908 9.558,3.908c4.209,-0 7.683,-0.854 10.429,-2.554c2.746,-1.704 4.821,-4.121 6.221,-7.246l0,-37.571l-8.716,-1.683l-0,-7.634l20.558,0l-0,55.784l7.454,1.683l0,7.575l-18.092,0l-0.783,-9.617c-2.042,3.488 -4.679,6.171 -7.904,8.055c-3.225,1.883 -6.942,2.825 -11.15,2.825Z" style="fill:#fff;fill-rule:nonzero;"/><path d="M467.488,440.617c-4.246,-0 -7.934,-0.813 -11.063,-2.434c-3.125,-1.625 -5.729,-4.016 -7.813,-7.183l-1.083,8.354l-10.216,0l-0,-84.458l-9.801,-1.683l0,-7.638l21.642,0l0,36.429c2.042,-2.883 4.579,-5.087 7.604,-6.612c3.025,-1.521 6.563,-2.284 10.609,-2.284c5.371,0 9.95,1.454 13.737,4.359c3.788,2.908 6.692,6.983 8.717,12.233c2.025,5.25 3.033,11.363 3.033,18.337l0,1.263c0,6.25 -1.008,11.721 -3.033,16.408c-2.025,4.692 -4.929,8.346 -8.717,10.971c-3.787,2.625 -8.325,3.938 -13.616,3.938Zm-3.005,-9.617c5.571,0 9.709,-1.983 12.413,-5.954c2.704,-3.967 4.058,-9.217 4.058,-15.746l0,-1.262c0,-5.013 -0.6,-9.409 -1.804,-13.196c-1.2,-3.788 -3.025,-6.754 -5.471,-8.9c-2.446,-2.142 -5.55,-3.213 -9.317,-3.213c-3.645,0 -6.725,0.879 -9.229,2.642c-2.504,1.767 -4.496,4.129 -5.979,7.096l0,28.733c1.483,3.008 3.496,5.392 6.042,7.154c2.541,1.763 5.641,2.646 9.287,2.646Z" style="fill:#fff;fill-rule:nonzero;"/><path d="M500.55,439.354l0,-7.575l9.8,-1.683l0,-75.2l-9.8,-1.683l0,-7.638l21.642,0l-0,84.521l9.8,1.683l-0,7.575l-31.442,0Z" style="fill:#fff;fill-rule:nonzero;"/><path d="M539.988,439.354l-0,-7.575l9.795,-1.683l0,-46.467l-9.795,-1.683l-0,-7.633l21.637,-0l0,55.783l9.8,1.683l0,7.575l-31.437,0Zm9.195,-81.092l0,-12.687l12.442,-0l0,12.687l-12.442,0Z" style="fill:#fff;fill-rule:nonzero;"/><path d="M608.996,440.617c-5.892,-0 -11.021,-1.371 -15.388,-4.117c-4.37,-2.746 -7.754,-6.562 -10.158,-11.454c-2.408,-4.888 -3.608,-10.538 -3.608,-16.95l-0,-2.525c-0,-6.171 1.162,-11.704 3.487,-16.592c2.325,-4.887 5.671,-8.758 10.038,-11.6c4.37,-2.846 9.579,-4.271 15.629,-4.271c5.25,0 9.85,0.863 13.796,2.588c3.95,1.721 7.266,4.087 9.95,7.091l0.3,15.63l-9.259,-0l-2.041,-11.363c-1.363,-1.4 -3.067,-2.525 -5.109,-3.367c-2.046,-0.841 -4.45,-1.262 -7.216,-1.262c-3.525,0 -6.621,1.046 -9.288,3.129c-2.662,2.084 -4.737,4.867 -6.221,8.354c-1.483,3.488 -2.225,7.375 -2.225,11.663l0,2.525c0,4.729 0.692,8.837 2.075,12.325c1.384,3.483 3.367,6.179 5.95,8.083c2.588,1.904 5.663,2.854 9.229,2.854c4.009,0 7.334,-1.1 9.98,-3.304c2.645,-2.204 4.266,-5.229 4.866,-9.079l10.642,-0l0.121,0.362c-0.2,3.725 -1.304,7.213 -3.309,10.459c-2.004,3.246 -4.858,5.862 -8.566,7.846c-3.704,1.983 -8.263,2.975 -13.675,2.975Z" style="fill:#fff;fill-rule:nonzero;"/><path d="M665.983,440.617c-6.77,-0 -11.92,-1.654 -15.445,-4.959c-3.53,-3.308 -5.292,-7.966 -5.292,-13.975c-0,-4.129 1.133,-7.725 3.396,-10.791c2.266,-3.067 5.541,-5.45 9.829,-7.154c4.287,-1.705 9.417,-2.555 15.387,-2.555l11.605,0l-0,-6.37c-0,-3.93 -1.192,-6.975 -3.58,-9.138c-2.383,-2.167 -5.737,-3.25 -10.066,-3.25c-2.725,0 -5.092,0.333 -7.096,0.996c-2,0.658 -3.825,1.571 -5.467,2.733l-1.262,9.079l-9.138,0l0,-14.908c2.925,-2.367 6.329,-4.158 10.217,-5.383c3.887,-1.221 8.196,-1.834 12.925,-1.834c7.896,0 14.087,1.884 18.575,5.65c4.487,3.771 6.733,9.159 6.733,16.171l0,31.321c0,0.842 0.009,1.663 0.029,2.467c0.021,0.8 0.071,1.6 0.15,2.404l6.313,0.658l-0,7.575l-17.013,0c-0.358,-1.762 -0.641,-3.346 -0.841,-4.75c-0.2,-1.4 -0.338,-2.804 -0.421,-4.204c-2.283,2.925 -5.138,5.358 -8.567,7.3c-3.425,1.946 -7.083,2.917 -10.971,2.917Zm1.746,-9.917c3.925,0 7.513,-0.942 10.759,-2.825c3.245,-1.883 5.57,-4.15 6.975,-6.796l-0,-11.779l-12.025,0c-5.45,0 -9.538,1.3 -12.263,3.904c-2.725,2.604 -4.087,5.513 -4.087,8.717c-0,2.846 0.883,5.021 2.645,6.525c1.763,1.5 4.43,2.254 7.996,2.254Z" style="fill:#fff;fill-rule:nonzero;"/><path d="M735.958,440.375c-4.808,0 -8.625,-1.412 -11.454,-4.237c-2.825,-2.825 -4.237,-7.342 -4.237,-13.555l-0,-39.495l-10.279,-0l-0,-8.775l10.279,-0l-0,-15.692l11.846,-0l-0,15.692l14.124,-0l0,8.775l-14.125,-0l0,39.495c0,3.125 0.621,5.43 1.863,6.913c1.242,1.483 2.904,2.225 4.987,2.225c1.405,-0 2.967,-0.129 4.692,-0.392c1.721,-0.258 3.063,-0.491 4.025,-0.691l1.625,7.754c-1.725,0.521 -3.837,0.983 -6.341,1.383c-2.505,0.4 -4.842,0.6 -7.005,0.6Z" style="fill:#fff;fill-rule:nonzero;"/><path d="M756.458,439.354l0,-7.575l9.796,-1.683l0,-46.467l-9.796,-1.683l0,-7.633l21.642,-0l0,55.783l9.796,1.683l-0,7.575l-31.438,0Zm9.196,-81.092l0,-12.687l12.446,-0l-0,12.687l-12.446,0Z" style="fill:#fff;fill-rule:nonzero;"/><path d="M825.467,440.617c-6.009,-0 -11.192,-1.413 -15.538,-4.238c-4.35,-2.825 -7.704,-6.733 -10.071,-11.721c-2.362,-4.991 -3.545,-10.691 -3.545,-17.104l-0,-1.321c-0,-6.412 1.183,-12.112 3.545,-17.104c2.367,-4.987 5.721,-8.908 10.071,-11.75c4.346,-2.846 9.488,-4.271 15.417,-4.271c6.012,0 11.191,1.425 15.541,4.271c4.35,2.842 7.705,6.75 10.071,11.721c2.363,4.971 3.546,10.679 3.546,17.133l0,1.321c0,6.454 -1.183,12.175 -3.546,17.163c-2.366,4.991 -5.712,8.887 -10.041,11.691c-4.33,2.809 -9.48,4.209 -15.45,4.209Zm-0,-9.259c3.766,0 6.925,-1.029 9.471,-3.095c2.541,-2.063 4.466,-4.888 5.77,-8.475c1.3,-3.588 1.954,-7.663 1.954,-12.234l0,-1.321c0,-4.57 -0.654,-8.645 -1.954,-12.233c-1.304,-3.587 -3.237,-6.412 -5.804,-8.479c-2.562,-2.063 -5.75,-3.096 -9.558,-3.096c-3.767,0 -6.933,1.033 -9.496,3.096c-2.567,2.067 -4.488,4.892 -5.771,8.479c-1.283,3.588 -1.925,7.663 -1.925,12.233l0,1.321c0,4.571 0.642,8.646 1.925,12.234c1.283,3.587 3.217,6.412 5.8,8.475c2.588,2.066 5.784,3.095 9.588,3.095Z" style="fill:#fff;fill-rule:nonzero;"/><path d="M863.642,439.354l-0,-7.575l9.796,-1.683l-0,-46.467l-9.796,-1.683l-0,-7.633l20.379,-0l0.841,9.679c2.163,-3.45 4.88,-6.125 8.142,-8.025c3.267,-1.904 6.983,-2.859 11.154,-2.859c7.013,0 12.442,2.054 16.292,6.163c3.846,4.108 5.771,10.45 5.771,19.025l-0,31.8l9.796,1.683l-0,7.575l-31.438,0l0,-7.575l9.796,-1.683l-0,-31.559c-0,-5.729 -1.129,-9.8 -3.396,-12.204c-2.262,-2.404 -5.721,-3.604 -10.367,-3.604c-3.408,0 -6.425,0.821 -9.05,2.463c-2.625,1.641 -4.716,3.887 -6.279,6.733l0,38.171l9.796,1.683l0,7.575l-31.437,0Z" style="fill:#fff;fill-rule:nonzero;"/><path d="M970.704,440.617c-4.366,-0 -8.458,-0.442 -12.262,-1.321c-3.809,-0.883 -7.855,-2.246 -12.146,-4.088l-0.117,-15.45l8.954,0l2.225,9.317c2.246,0.921 4.417,1.592 6.521,2.013c2.104,0.42 4.379,0.633 6.825,0.633c4.808,-0 8.254,-0.921 10.338,-2.767c2.087,-1.841 3.129,-4.125 3.129,-6.85c-0,-2.566 -1.054,-4.741 -3.159,-6.525c-2.104,-1.783 -5.92,-3.296 -11.45,-4.537c-7.854,-1.804 -13.637,-4.217 -17.345,-7.246c-3.705,-3.025 -5.559,-7.063 -5.559,-12.113c0,-3.525 1.021,-6.683 3.067,-9.466c2.042,-2.784 4.887,-5 8.533,-6.642c3.65,-1.646 7.896,-2.467 12.746,-2.467c4.929,0 9.146,0.563 12.654,1.684c3.509,1.125 6.563,2.625 9.167,4.508l0.6,14.85l-8.896,0l-1.921,-8.658c-1.404,-1.042 -3.066,-1.842 -4.991,-2.404c-1.925,-0.559 -4.13,-0.842 -6.613,-0.842c-3.687,-0 -6.683,0.862 -8.987,2.587c-2.305,1.721 -3.455,3.888 -3.455,6.492c0,1.521 0.33,2.846 0.992,3.967c0.658,1.121 1.933,2.133 3.817,3.037c1.883,0.9 4.646,1.792 8.296,2.675c9.054,2.121 15.379,4.829 18.966,8.113c3.584,3.287 5.379,7.333 5.379,12.146c0,5.487 -2.033,10.087 -6.104,13.795c-4.066,3.705 -10.466,5.559 -19.204,5.559Z" style="fill:#fff;fill-rule:nonzero;"/></svg>