<?xml version="1.0" encoding="UTF-8" standalone="no"?><!DOCTYPE svg PUBLIC "-//W3C//DTD SVG 1.1//EN" "http://www.w3.org/Graphics/SVG/1.1/DTD/svg11.dtd"><svg width="100%" height="100%" viewBox="0 0 304 150" version="1.1" xmlns="http://www.w3.org/2000/svg" xmlns:xlink="http://www.w3.org/1999/xlink" xml:space="preserve" xmlns:serif="http://www.serif.com/" style="fill-rule:evenodd;clip-rule:evenodd;stroke-linejoin:round;stroke-miterlimit:2;"><rect x="0" y="0" width="303.903" height="150" style="fill:#ff4b4c;"/><path d="M67.907,70.054c-1.075,-1.347 -1.982,-2.857 -2.719,-4.532c-1.597,-3.63 -2.396,-7.749 -2.396,-12.356l-0,-0.685c-0,-4.651 0.837,-8.786 2.51,-12.404c1.674,-3.619 4.075,-6.472 7.205,-8.558c3.13,-2.087 6.868,-3.13 11.215,-3.13c3.064,0 5.868,0.478 8.411,1.435c2.543,0.956 4.651,2.173 6.324,3.651l0,10.237l-5.118,-0l-0.685,-7.499c-0.695,-0.543 -1.494,-0.999 -2.396,-1.369c-0.902,-0.369 -1.902,-0.652 -2.999,-0.847c-1.098,-0.196 -2.288,-0.294 -3.57,-0.294c-3.108,0 -5.738,0.799 -7.889,2.396c-2.152,1.598 -3.782,3.798 -4.89,6.602c-1.109,2.804 -1.663,6.042 -1.663,9.715l-0,0.75c-0,3.977 0.592,7.373 1.777,10.188c1.184,2.814 2.912,4.96 5.183,6.438c0.138,0.09 0.278,0.177 0.42,0.262l-8.72,-0Zm30.42,-0l-5.793,-0l0.055,-0.034l0.717,-6.618l5.021,0l-0,6.652Z" style="fill-rule:nonzero;"/><path d="M213.213,70.054c-0.225,-0.947 -0.338,-1.979 -0.338,-3.098c0,-2.239 0.614,-4.189 1.842,-5.852c1.228,-1.663 3.005,-2.956 5.331,-3.879c2.325,-0.924 5.107,-1.386 8.345,-1.386l6.292,0l0,-3.456c0,-2.13 -0.646,-3.781 -1.939,-4.955c-1.294,-1.174 -3.114,-1.76 -5.461,-1.76c-1.478,-0 -2.76,0.179 -3.847,0.538c-1.087,0.358 -2.075,0.853 -2.967,1.483l-0.684,4.923l-4.955,-0l-0,-8.085c1.586,-1.283 3.433,-2.255 5.542,-2.918c2.108,-0.663 4.444,-0.994 7.009,-0.994c4.281,-0 7.639,1.021 10.073,3.064c2.435,2.043 3.652,4.966 3.652,8.77l-0,16.985c-0,0.209 0.001,0.415 0.003,0.62l-9.777,-0c1.537,-0.968 2.654,-2.109 3.351,-3.424l0,-6.39l-6.52,0c-2.956,0 -5.172,0.707 -6.65,2.119c-1.478,1.413 -2.217,2.989 -2.217,4.727c-0,1.215 0.296,2.204 0.889,2.968l-6.974,-0Z" style="fill-rule:nonzero;"/><path d="M194.794,70.054l-0,-23.734l-5.314,-0.913l-0,-4.14l11.052,-0l0.554,4.498l0.065,0.62c1,-1.804 2.233,-3.217 3.7,-4.238c1.467,-1.022 3.146,-1.532 5.037,-1.532c0.674,-0 1.364,0.059 2.07,0.179c0.706,0.119 1.212,0.233 1.516,0.342l-0.848,5.966l-4.466,-0.261c-1.695,-0.108 -3.119,0.277 -4.271,1.158c-1.151,0.88 -2.043,2.059 -2.673,3.537l0,18.518l-6.422,-0Z" style="fill-rule:nonzero;"/><path d="M173.209,70.054c-0.12,-0.798 -0.179,-1.668 -0.179,-2.609l-0,-21.419l-5.575,0l-0,-4.759l5.575,-0l-0,-8.509l6.422,-0l-0,8.509l7.661,-0l0,4.759l-7.661,0l-0,21.419c-0,1.036 0.126,1.905 0.377,2.609l-6.62,-0Z" style="fill-rule:nonzero;"/><path d="M137.929,70.054l-0,-23.734l-5.314,-0.913l0,-4.14l11.052,-0l0.456,5.248c1.174,-1.869 2.646,-3.32 4.417,-4.352c1.772,-1.032 3.788,-1.548 6.048,-1.548c3.803,-0 6.748,1.113 8.835,3.341c2.086,2.228 3.129,5.667 3.129,10.318l0,15.78l-6.422,-0l0,-15.649c0,-3.108 -0.614,-5.314 -1.842,-6.618c-1.228,-1.304 -3.102,-1.956 -5.624,-1.956c-1.847,-0 -3.482,0.445 -4.906,1.336c-1.424,0.891 -2.559,2.108 -3.407,3.652l0,19.235l-6.422,-0Z" style="fill-rule:nonzero;"/><path d="M104.827,70.054c-0.284,-0.474 -0.548,-0.968 -0.792,-1.484c-1.283,-2.706 -1.924,-5.798 -1.924,-9.275l0,-0.717c0,-3.478 0.641,-6.57 1.924,-9.275c1.282,-2.706 3.102,-4.831 5.46,-6.374c2.358,-1.543 5.146,-2.314 8.362,-2.314c3.26,-0 6.069,0.771 8.428,2.314c2.358,1.543 4.178,3.662 5.46,6.357c1.283,2.695 1.924,5.792 1.924,9.292l-0,0.717c-0,3.499 -0.641,6.601 -1.924,9.307c-0.239,0.505 -0.496,0.988 -0.772,1.452l-7.379,-0c1.117,-1.066 1.981,-2.44 2.593,-4.125c0.706,-1.945 1.059,-4.157 1.059,-6.634l0,-0.717c0,-2.478 -0.353,-4.69 -1.059,-6.635c-0.707,-1.945 -1.755,-3.477 -3.146,-4.596c-1.391,-1.12 -3.119,-1.679 -5.184,-1.679c-2.043,-0 -3.76,0.559 -5.151,1.679c-1.391,1.119 -2.434,2.651 -3.129,4.596c-0.696,1.945 -1.044,4.157 -1.044,6.635l0,0.717c0,2.477 0.348,4.689 1.044,6.634c0.602,1.685 1.469,3.059 2.601,4.125l-7.351,-0Z" style="fill-rule:nonzero;"/><path d="M67.328,105.445l-0,-1.818l2.352,-0.404l-0,-16.548l-2.352,-0.404l-0,-1.832l9.652,-0c1.5,-0 2.78,0.262 3.838,0.786c1.058,0.524 1.865,1.258 2.423,2.2c0.558,0.943 0.837,2.044 0.837,3.304c0,1.27 -0.279,2.376 -0.837,3.319c-0.558,0.942 -1.365,1.673 -2.423,2.193c-1.058,0.519 -2.338,0.779 -3.838,0.779l-4.458,-0l-0,6.203l2.351,0.404l0,1.818l-7.545,0Zm5.194,-10.647l4.458,-0c1.423,-0 2.489,-0.383 3.196,-1.147c0.706,-0.765 1.06,-1.729 1.06,-2.893c-0,-1.164 -0.354,-2.135 -1.06,-2.914c-0.707,-0.779 -1.773,-1.169 -3.196,-1.169l-4.458,0l-0,8.123Z" style="fill:#fff;fill-rule:nonzero;"/><path d="M92.807,105.748c-1.693,0 -3.016,-0.543 -3.968,-1.63c-0.952,-1.087 -1.428,-2.78 -1.428,-5.079l-0,-6.968l-1.789,-0.404l-0,-1.832l4.631,-0l0,9.233c0,1.664 0.245,2.809 0.736,3.434c0.49,0.625 1.255,0.938 2.294,0.938c1.01,-0 1.844,-0.205 2.503,-0.613c0.659,-0.409 1.157,-0.989 1.493,-1.739l0,-9.017l-2.092,-0.404l0,-1.832l4.934,-0l0,13.388l1.789,0.404l0,1.818l-4.342,0l-0.188,-2.308c-0.49,0.837 -1.123,1.481 -1.897,1.933c-0.774,0.452 -1.666,0.678 -2.676,0.678Z" style="fill:#fff;fill-rule:nonzero;"/><path d="M112.197,105.748c-1.019,0 -1.904,-0.195 -2.655,-0.584c-0.75,-0.39 -1.375,-0.964 -1.875,-1.724l-0.26,2.005l-2.452,0l-0,-20.27l-2.352,-0.404l-0,-1.833l5.194,0l-0,8.743c0.49,-0.692 1.099,-1.221 1.825,-1.587c0.726,-0.365 1.575,-0.548 2.546,-0.548c1.289,0 2.388,0.349 3.297,1.046c0.909,0.698 1.606,1.676 2.092,2.936c0.486,1.26 0.728,2.727 0.728,4.401l0,0.303c0,1.5 -0.242,2.813 -0.728,3.938c-0.486,1.126 -1.183,2.003 -2.092,2.633c-0.909,0.63 -1.998,0.945 -3.268,0.945Zm-0.721,-2.308c1.337,-0 2.33,-0.476 2.979,-1.429c0.649,-0.952 0.974,-2.212 0.974,-3.779l-0,-0.303c-0,-1.203 -0.144,-2.258 -0.433,-3.167c-0.288,-0.909 -0.726,-1.621 -1.313,-2.136c-0.587,-0.514 -1.332,-0.771 -2.236,-0.771c-0.875,-0 -1.614,0.211 -2.215,0.634c-0.601,0.424 -1.079,0.991 -1.435,1.703l-0,6.896c0.356,0.722 0.839,1.294 1.45,1.717c0.61,0.423 1.354,0.635 2.229,0.635Z" style="fill:#fff;fill-rule:nonzero;"/><path d="M120.132,105.445l0,-1.818l2.352,-0.404l-0,-18.048l-2.352,-0.404l0,-1.833l5.194,0l0,20.285l2.352,0.404l-0,1.818l-7.546,0Z" style="fill:#fff;fill-rule:nonzero;"/><path d="M129.597,105.445l-0,-1.818l2.351,-0.404l0,-11.152l-2.351,-0.404l-0,-1.832l5.193,-0l0,13.388l2.352,0.404l0,1.818l-7.545,0Zm2.207,-19.462l-0,-3.045l2.986,0l0,3.045l-2.986,-0Z" style="fill:#fff;fill-rule:nonzero;"/><path d="M146.159,105.748c-1.414,0 -2.645,-0.329 -3.693,-0.988c-1.049,-0.659 -1.861,-1.575 -2.438,-2.749c-0.578,-1.173 -0.866,-2.529 -0.866,-4.068l-0,-0.606c-0,-1.481 0.279,-2.809 0.837,-3.982c0.558,-1.173 1.361,-2.102 2.409,-2.784c1.049,-0.683 2.299,-1.025 3.751,-1.025c1.26,0 2.364,0.207 3.311,0.621c0.948,0.413 1.744,0.981 2.388,1.702l0.072,3.751l-2.222,0l-0.49,-2.727c-0.327,-0.336 -0.736,-0.606 -1.226,-0.808c-0.491,-0.202 -1.068,-0.303 -1.732,-0.303c-0.846,0 -1.589,0.251 -2.229,0.751c-0.639,0.5 -1.137,1.168 -1.493,2.005c-0.356,0.837 -0.534,1.77 -0.534,2.799l0,0.606c0,1.135 0.166,2.121 0.498,2.958c0.332,0.836 0.808,1.483 1.428,1.94c0.621,0.457 1.359,0.685 2.215,0.685c0.962,0 1.76,-0.264 2.395,-0.793c0.635,-0.529 1.024,-1.255 1.168,-2.179l2.554,0l0.029,0.087c-0.048,0.894 -0.313,1.731 -0.794,2.51c-0.481,0.779 -1.166,1.407 -2.056,1.883c-0.889,0.476 -1.983,0.714 -3.282,0.714Z" style="fill:#fff;fill-rule:nonzero;"/><path d="M159.836,105.748c-1.625,0 -2.861,-0.397 -3.707,-1.19c-0.847,-0.794 -1.27,-1.912 -1.27,-3.354c-0,-0.991 0.272,-1.854 0.815,-2.59c0.544,-0.736 1.33,-1.308 2.359,-1.717c1.029,-0.409 2.26,-0.613 3.693,-0.613l2.785,-0l-0,-1.529c-0,-0.943 -0.286,-1.674 -0.859,-2.193c-0.572,-0.52 -1.377,-0.78 -2.416,-0.78c-0.654,0 -1.222,0.08 -1.703,0.239c-0.48,0.158 -0.918,0.377 -1.312,0.656l-0.303,2.179l-2.193,-0l-0,-3.578c0.702,-0.568 1.519,-0.998 2.452,-1.292c0.933,-0.293 1.967,-0.44 3.102,-0.44c1.895,0 3.381,0.452 4.458,1.356c1.077,0.905 1.616,2.198 1.616,3.881l0,7.517c0,0.202 0.002,0.399 0.007,0.592c0.005,0.192 0.017,0.384 0.036,0.577l1.515,0.158l0,1.818l-4.083,0c-0.086,-0.423 -0.154,-0.803 -0.202,-1.14c-0.048,-0.336 -0.081,-0.673 -0.101,-1.009c-0.548,0.702 -1.233,1.286 -2.056,1.752c-0.822,0.467 -1.7,0.7 -2.633,0.7Zm0.419,-2.38c0.942,-0 1.803,-0.226 2.582,-0.678c0.779,-0.452 1.337,-0.996 1.674,-1.631l-0,-2.827l-2.886,-0c-1.308,-0 -2.289,0.312 -2.943,0.937c-0.654,0.625 -0.981,1.323 -0.981,2.092c0,0.683 0.212,1.205 0.635,1.566c0.423,0.36 1.063,0.541 1.919,0.541Z" style="fill:#fff;fill-rule:nonzero;"/><path d="M176.63,105.69c-1.154,0 -2.07,-0.339 -2.749,-1.017c-0.678,-0.678 -1.017,-1.762 -1.017,-3.253l0,-9.479l-2.467,0l0,-2.106l2.467,-0l0,-3.766l2.843,0l-0,3.766l3.39,-0l-0,2.106l-3.39,0l-0,9.479c-0,0.75 0.149,1.303 0.447,1.659c0.298,0.356 0.697,0.534 1.197,0.534c0.337,-0 0.712,-0.031 1.126,-0.094c0.413,-0.062 0.735,-0.118 0.966,-0.166l0.39,1.861c-0.414,0.125 -0.921,0.236 -1.522,0.332c-0.601,0.096 -1.162,0.144 -1.681,0.144Z" style="fill:#fff;fill-rule:nonzero;"/><path d="M181.55,105.445l-0,-1.818l2.351,-0.404l0,-11.152l-2.351,-0.404l-0,-1.832l5.194,-0l-0,13.388l2.351,0.404l0,1.818l-7.545,0Zm2.207,-19.462l0,-3.045l2.987,0l-0,3.045l-2.987,-0Z" style="fill:#fff;fill-rule:nonzero;"/><path d="M198.112,105.748c-1.442,0 -2.686,-0.339 -3.729,-1.017c-1.044,-0.678 -1.849,-1.616 -2.417,-2.813c-0.567,-1.198 -0.851,-2.566 -0.851,-4.105l0,-0.317c0,-1.539 0.284,-2.907 0.851,-4.105c0.568,-1.197 1.373,-2.138 2.417,-2.82c1.043,-0.683 2.277,-1.025 3.7,-1.025c1.443,0 2.686,0.342 3.73,1.025c1.044,0.682 1.849,1.62 2.417,2.813c0.567,1.193 0.851,2.563 0.851,4.112l-0,0.317c-0,1.549 -0.284,2.922 -0.851,4.119c-0.568,1.198 -1.371,2.133 -2.41,2.806c-1.039,0.674 -2.275,1.01 -3.708,1.01Zm0,-2.222c0.904,0 1.662,-0.247 2.273,-0.743c0.61,-0.495 1.072,-1.173 1.385,-2.034c0.312,-0.861 0.469,-1.839 0.469,-2.936l-0,-0.317c-0,-1.097 -0.157,-2.075 -0.469,-2.936c-0.313,-0.861 -0.777,-1.539 -1.393,-2.035c-0.615,-0.495 -1.38,-0.743 -2.294,-0.743c-0.904,0 -1.664,0.248 -2.279,0.743c-0.616,0.496 -1.077,1.174 -1.385,2.035c-0.308,0.861 -0.462,1.839 -0.462,2.936l0,0.317c0,1.097 0.154,2.075 0.462,2.936c0.308,0.861 0.772,1.539 1.392,2.034c0.621,0.496 1.388,0.743 2.301,0.743Z" style="fill:#fff;fill-rule:nonzero;"/><path d="M207.274,105.445l-0,-1.818l2.351,-0.404l0,-11.152l-2.351,-0.404l-0,-1.832l4.891,-0l0.202,2.323c0.519,-0.828 1.171,-1.47 1.954,-1.926c0.784,-0.457 1.676,-0.686 2.677,-0.686c1.683,0 2.986,0.493 3.91,1.479c0.923,0.986 1.385,2.508 1.385,4.566l-0,7.632l2.351,0.404l0,1.818l-7.545,0l-0,-1.818l2.351,-0.404l0,-7.574c0,-1.375 -0.271,-2.352 -0.815,-2.929c-0.543,-0.577 -1.373,-0.865 -2.488,-0.865c-0.818,-0 -1.542,0.197 -2.172,0.591c-0.63,0.394 -1.132,0.933 -1.507,1.616l-0,9.161l2.351,0.404l0,1.818l-7.545,0Z" style="fill:#fff;fill-rule:nonzero;"/><path d="M232.969,105.748c-1.048,0 -2.03,-0.106 -2.943,-0.317c-0.914,-0.212 -1.885,-0.539 -2.915,-0.981l-0.028,-3.708l2.149,-0l0.534,2.236c0.539,0.221 1.06,0.382 1.565,0.483c0.505,0.101 1.051,0.152 1.638,0.152c1.154,-0 1.981,-0.221 2.481,-0.664c0.501,-0.442 0.751,-0.99 0.751,-1.644c-0,-0.616 -0.253,-1.138 -0.758,-1.566c-0.505,-0.428 -1.421,-0.791 -2.748,-1.089c-1.885,-0.433 -3.273,-1.012 -4.163,-1.739c-0.889,-0.726 -1.334,-1.695 -1.334,-2.907c-0,-0.846 0.245,-1.604 0.736,-2.272c0.49,-0.668 1.173,-1.2 2.048,-1.594c0.876,-0.395 1.895,-0.592 3.059,-0.592c1.183,0 2.195,0.135 3.037,0.404c0.842,0.27 1.575,0.63 2.2,1.082l0.144,3.564l-2.135,-0l-0.461,-2.078c-0.337,-0.25 -0.736,-0.442 -1.198,-0.577c-0.462,-0.134 -0.991,-0.202 -1.587,-0.202c-0.885,0 -1.604,0.207 -2.157,0.621c-0.553,0.413 -0.829,0.933 -0.829,1.558c-0,0.365 0.079,0.683 0.238,0.952c0.158,0.269 0.464,0.512 0.916,0.729c0.452,0.216 1.115,0.43 1.991,0.642c2.173,0.509 3.691,1.159 4.552,1.947c0.86,0.789 1.291,1.76 1.291,2.915c-0,1.317 -0.488,2.421 -1.465,3.311c-0.976,0.889 -2.512,1.334 -4.609,1.334Z" style="fill:#fff;fill-rule:nonzero;"/></svg>